# xmcd
#
# Track frame offsets: 
#        150
#        20104
#        35254
#        58205
#        77101
#        95868
#        121368
#        140205
#        167257
#        186674
#
# Disc length: 2774 seconds
#
# Revision: 0
# Processed by: cddbd v1.5.2PL0 Copyright (c) Steve Scherf et al.
# Submitted via: ExactAudioCopy v1.0b4
#
DISCID=930ad40a
DTITLE=The Janeys - The Janeys
DYEAR=2002
DGENRE=Blues Rock
TTITLE0=Cool Water
TTITLE1=Letґs Get Together
TTITLE2=Bring Me Love
TTITLE3=Why Do I
TTITLE4=Bare Wire
TTITLE5=Hangtime
TTITLE6=Blues Train
TTITLE7=Show You What I Go
TTITLE8=I Donґt Know Why
TTITLE9=20 Miles Bad Roadknow Why
EXTD=
EXTT0=
EXTT1=
EXTT2=
EXTT3=
EXTT4=
EXTT5=
EXTT6=
EXTT7=
EXTT8=
EXTT9=
PLAYORDER=
